<svg width="232" height="42" viewBox="0 0 232 42" fill="none" xmlns="http://www.w3.org/2000/svg">
<path d="M16.5088 12.5042C16.0717 11.7758 15.5254 11.1566 14.4692 10.5375C12.539 9.26279 10.4994 9.08069 8.78769 9.26279C7.40373 9.44489 5.91051 9.88194 5.10927 11.5573C4.59938 12.7227 4.89075 14.1431 5.54631 14.9807C5.94693 15.4178 6.27471 15.782 6.89385 16.1826C7.58583 16.6197 8.20497 16.9474 9.18831 17.2388L11.0093 17.7487C15.7075 19.0962 17.5649 20.1888 18.5483 21.245C19.823 22.5925 20.952 25.2876 19.7501 28.3469C18.9853 29.8766 17.6742 31.1877 16.1081 32.0618C15.0519 32.5352 13.5223 33.1544 12.3204 33.2272C9.47967 33.6278 6.89385 33.0087 4.2716 31.4062C1.7222 29.8401 0.411076 27.5093 0.046875 26.4895L3.61604 25.1784C3.83456 25.8704 4.56296 27.2179 6.20187 28.2741C8.27781 29.5124 9.77104 29.8766 11.9198 29.5852C12.539 29.5124 13.4859 29.221 14.3235 28.784C15.1976 28.3105 15.8168 27.7642 16.2538 26.963C16.9094 25.6518 16.3995 24.45 15.8168 23.7944C15.234 23.066 13.9229 22.4833 10.0624 21.3178L8.20497 20.7715C6.85743 20.3709 5.72841 19.8246 4.81791 19.2419C3.68888 18.4771 2.92406 17.6758 2.66912 17.3845C1.358 15.8184 0.483916 12.7955 1.64936 10.1369C2.9969 7.04117 6.16545 5.87573 8.31423 5.62079C10.4266 5.36585 13.6316 5.58437 16.4359 7.36895C18.002 8.31587 19.0582 9.44489 19.7137 10.5375L16.5088 12.5042Z" fill="#363A3D"/>
<path d="M36.6954 21.7913C36.4769 19.3147 34.8744 17.2388 31.6695 17.2388C28.6466 17.2388 26.4978 18.6956 26.1336 21.7913H36.6954ZM22.4916 23.3574C22.4916 18.1493 25.733 13.7425 31.5966 13.7425C37.6424 13.7425 39.3541 18.5499 39.4998 18.9141C40.6288 21.8641 40.301 25.0327 40.301 25.0327H26.1336C26.5342 27.7642 28.3552 29.4759 31.633 29.4759C35.5664 29.4759 36.3676 27.1815 36.3676 27.1815L39.609 28.7111C39.609 28.7111 37.9701 32.9358 31.5966 32.9358C25.733 32.9358 22.4916 28.529 22.4916 23.3574Z" fill="#363A3D"/>
<path d="M51.6433 29.4395C54.5569 29.4395 57.1427 27.0358 57.1792 23.503C57.1427 20.0067 54.5569 17.5666 51.6433 17.5666C47.9649 17.5666 46.1803 20.116 46.1803 23.503C46.1803 26.8901 47.9649 29.4395 51.6433 29.4395ZM42.3562 23.503C42.3562 18.3314 45.5976 13.9246 51.3884 13.9246C53.4643 13.9246 55.7224 14.9807 57.252 17.2388V13.8517H61.0397V32.7902L57.252 32.8266V29.8037C55.6495 32.1346 53.5007 33.1179 51.3884 33.1179C45.5976 33.1179 42.3562 28.6747 42.3562 23.503Z" fill="#363A3D"/>
<path d="M68.3322 17.3845C69.5341 14.9807 72.4477 13.6696 74.4144 13.6696V17.3481C70.9545 17.3481 68.3322 20.5166 68.3322 23.1753V32.8266H64.5446V13.7789H68.3322V17.3845Z" fill="#363A3D"/>
<path d="M84.851 29.1846C86.4899 29.1846 87.9467 28.4926 89.0393 27.4L91.8437 30.0587C90.0955 31.8432 87.6918 32.9723 84.9967 32.9723C78.9146 32.9723 75.3454 28.4562 75.3454 22.9932C75.3454 17.5302 78.9146 13.0141 84.9967 13.0141C87.6918 13.0141 90.0955 14.1431 91.8437 15.9277L89.0393 18.5499C87.9467 17.4937 86.4899 16.7653 84.851 16.7653C80.9177 16.7653 78.951 19.5333 78.951 22.9932C78.951 26.4531 80.9177 29.1846 84.851 29.1846Z" fill="#363A3D"/>
<path d="M107.472 22.6654C107.472 19.8246 106.052 17.8579 103.138 17.8579C100.334 17.8579 98.1122 20.2617 98.1122 23.1024V32.8994H94.3245V5.25659H98.1122V16.8018C99.2776 15.0172 101.536 13.9974 103.211 13.9974C108.018 13.9974 111.151 17.7123 111.151 22.2283V32.8994H107.472V22.6654Z" fill="#363A3D"/>
<path d="M114.426 5.25659H118.177V32.8994H114.426V5.25659Z" fill="#363A3D"/>
<path d="M121.821 13.7425H125.572V32.8994H121.821V13.7425ZM121.529 6.89549C121.529 5.69363 122.294 4.7467 123.714 4.7467C125.062 4.7467 125.827 5.69363 125.827 6.89549C125.827 8.09735 125.062 9.04427 123.714 9.04427C122.294 9.04427 121.529 8.09735 121.529 6.89549Z" fill="#363A3D"/>
<path d="M137.824 29.3303C140.774 29.3303 143.251 26.7809 143.251 23.3938C143.251 20.0796 140.774 17.5302 137.824 17.5302C134.219 17.5302 132.398 20.0796 132.398 23.3938C132.398 26.7809 134.219 29.3303 137.824 29.3303ZM128.574 23.3938C128.574 18.0765 131.815 13.8517 137.606 13.8517C139.39 13.8517 142.013 14.5801 143.469 17.1295V13.7425H147.294V31.8068C147.257 37.6705 143.105 41.0575 137.278 41.0575C133.964 41.0575 130.904 39.3458 129.156 36.7235L132.398 34.5748C133.6 36.5414 135.603 37.3791 137.278 37.3791C140.447 37.3791 143.469 35.8495 143.469 32.1346V29.6216C141.867 32.0253 139.39 32.9723 137.606 32.9723C131.815 32.9723 128.574 28.784 128.574 23.3938Z" fill="#363A3D"/>
<path d="M163.99 22.6654C163.99 19.8246 162.57 17.8579 159.656 17.8579C156.852 17.8579 154.63 20.2617 154.63 23.1024V32.8994H150.842V5.25659H154.63V16.8018C155.796 15.0172 158.054 13.9974 159.729 13.9974C164.536 13.9974 167.669 17.7123 167.669 22.2283V32.8994H163.99V22.6654Z" fill="#363A3D"/>
<path d="M181.672 32.426C180.834 32.6445 179.232 32.863 178.03 32.7902C175.226 32.7537 172.385 30.35 172.385 26.9994V17.2752H169.18V13.6332H172.385V7.18685H176.282V13.6332H181.126V17.2752H176.282V26.9994C176.246 28.2741 176.974 28.8932 178.103 28.9296C179.013 28.9296 180.106 28.784 180.652 28.6383L181.672 32.426Z" fill="#363A3D"/>
<g clip-path="url(#clip0_1357_580)">
<rect x="191.953" y="0.942871" width="40" height="40" rx="20" fill="url(#paint0_linear_1357_580)"/>
<rect x="191.953" y="0.942871" width="40" height="40" rx="20" fill="url(#paint1_linear_1357_580)"/>
<g filter="url(#filter0_i_1357_580)">
<path d="M205.096 -3.62854L236.525 -3.62854V27.8H205.096V-3.62854Z" fill="#34D8AC"/>
</g>
<mask id="mask0_1357_580" style="mask-type:alpha" maskUnits="userSpaceOnUse" x="205" y="0" width="27" height="28">
<path d="M205.096 0.942871L231.953 0.942871V27.8H205.096V0.942871Z" fill="#34D8AC"/>
</mask>
<g mask="url(#mask0_1357_580)">
<path fill-rule="evenodd" clip-rule="evenodd" d="M214.809 21.0275C214.762 22.6048 213.446 23.8455 211.869 23.7988C210.291 23.752 209.051 22.4355 209.097 20.8583C209.144 19.281 210.461 18.0403 212.038 18.087C213.615 18.1337 214.856 19.4503 214.809 21.0275ZM213.095 20.9767C213.077 21.6076 212.55 22.1039 211.919 22.0852C211.288 22.0665 210.792 21.5399 210.811 20.909C210.829 20.2781 211.356 19.7818 211.987 19.8005C212.618 19.8192 213.114 20.3458 213.095 20.9767Z" fill="url(#paint2_linear_1357_580)"/>
<path fill-rule="evenodd" clip-rule="evenodd" d="M211.953 32.3715C218.265 32.3715 223.382 27.2547 223.382 20.9429C223.382 14.6311 218.265 9.51432 211.953 9.51432C205.641 9.51432 200.525 14.6311 200.525 20.9429C200.525 27.2547 205.641 32.3715 211.953 32.3715ZM211.953 30.6572C217.318 30.6572 221.667 26.3079 221.667 20.9429C221.667 15.5778 217.318 11.2286 211.953 11.2286C206.588 11.2286 202.239 15.5778 202.239 20.9429C202.239 26.3079 206.588 30.6572 211.953 30.6572Z" fill="url(#paint3_linear_1357_580)"/>
<path fill-rule="evenodd" clip-rule="evenodd" d="M211.953 37.5143C221.105 37.5143 228.525 30.095 228.525 20.9429C228.525 11.7907 221.105 4.37146 211.953 4.37146C202.801 4.37146 195.382 11.7907 195.382 20.9429C195.382 30.095 202.801 37.5143 211.953 37.5143ZM211.953 35.8C220.159 35.8 226.81 29.1483 226.81 20.9429C226.81 12.7375 220.159 6.08575 211.953 6.08575C203.748 6.08575 197.096 12.7375 197.096 20.9429C197.096 29.1483 203.748 35.8 211.953 35.8Z" fill="url(#paint4_linear_1357_580)"/>
</g>
</g>
<defs>
<filter id="filter0_i_1357_580" x="205.096" y="-5.91425" width="33.7143" height="33.7143" filterUnits="userSpaceOnUse" color-interpolation-filters="sRGB">
<feFlood flood-opacity="0" result="BackgroundImageFix"/>
<feBlend mode="normal" in="SourceGraphic" in2="BackgroundImageFix" result="shape"/>
<feColorMatrix in="SourceAlpha" type="matrix" values="0 0 0 0 0 0 0 0 0 0 0 0 0 0 0 0 0 0 127 0" result="hardAlpha"/>
<feOffset dx="2.28571" dy="-2.28571"/>
<feGaussianBlur stdDeviation="4"/>
<feComposite in2="hardAlpha" operator="arithmetic" k2="-1" k3="1"/>
<feColorMatrix type="matrix" values="0 0 0 0 0 0 0 0 0 0.604167 0 0 0 0 0.442445 0 0 0 1 0"/>
<feBlend mode="normal" in2="shape" result="effect1_innerShadow_1357_580"/>
</filter>
<linearGradient id="paint0_linear_1357_580" x1="178.155" y1="15.1292" x2="198.022" y2="34.9958" gradientUnits="userSpaceOnUse">
<stop offset="0.175" stop-color="#00BC8A"/>
<stop offset="0.999" stop-color="#40D4AD"/>
<stop offset="1" stop-color="#40D4AD" stop-opacity="0"/>
</linearGradient>
<linearGradient id="paint1_linear_1357_580" x1="212.219" y1="49.1681" x2="197.878" y2="35.0398" gradientUnits="userSpaceOnUse">
<stop offset="0.175" stop-color="#01A277"/>
<stop offset="0.999" stop-color="#01936C"/>
<stop offset="1" stop-color="#40D4AD" stop-opacity="0"/>
</linearGradient>
<linearGradient id="paint2_linear_1357_580" x1="212.096" y1="4.37146" x2="212.096" y2="37.2286" gradientUnits="userSpaceOnUse">
<stop stop-color="white"/>
<stop offset="0.807292" stop-color="white" stop-opacity="0.14"/>
</linearGradient>
<linearGradient id="paint3_linear_1357_580" x1="212.096" y1="4.37146" x2="212.096" y2="37.2286" gradientUnits="userSpaceOnUse">
<stop stop-color="white"/>
<stop offset="0.807292" stop-color="white" stop-opacity="0.14"/>
</linearGradient>
<linearGradient id="paint4_linear_1357_580" x1="212.096" y1="4.37146" x2="212.096" y2="37.2286" gradientUnits="userSpaceOnUse">
<stop stop-color="white"/>
<stop offset="0.807292" stop-color="white" stop-opacity="0.14"/>
</linearGradient>
<clipPath id="clip0_1357_580">
<rect x="191.953" y="0.942871" width="40" height="40" rx="20" fill="white"/>
</clipPath>
</defs>
</svg>
