<svg width="17" height="16" viewBox="0 0 17 16" fill="none" xmlns="http://www.w3.org/2000/svg">
<mask id="mask0_1211_287" style="mask-type:alpha" maskUnits="userSpaceOnUse" x="0" y="0" width="17" height="16">
<rect x="0.5" width="16" height="16" fill="#D9D9D9"/>
</mask>
<g mask="url(#mask0_1211_287)">
<path d="M8.03332 12.8667C7.9111 12.7444 7.84721 12.5889 7.84165 12.4C7.8361 12.2111 7.89443 12.0556 8.01665 11.9333L11.2833 8.66666H3.83332C3.64443 8.66666 3.4861 8.60278 3.35832 8.475C3.23054 8.34722 3.16665 8.18889 3.16665 8C3.16665 7.81111 3.23054 7.65277 3.35832 7.525C3.4861 7.39722 3.64443 7.33333 3.83332 7.33333H11.2833L8.01665 4.06666C7.89443 3.94444 7.8361 3.78889 7.84165 3.6C7.84721 3.41111 7.9111 3.25555 8.03332 3.13333C8.15554 3.01111 8.3111 2.95 8.49998 2.95C8.68887 2.95 8.84443 3.01111 8.96665 3.13333L13.3667 7.53333C13.4333 7.58889 13.4805 7.65833 13.5083 7.74166C13.5361 7.825 13.55 7.91111 13.55 8C13.55 8.08889 13.5361 8.17222 13.5083 8.25C13.4805 8.32778 13.4333 8.4 13.3667 8.46666L8.96665 12.8667C8.84443 12.9889 8.68887 13.05 8.49998 13.05C8.3111 13.05 8.15554 12.9889 8.03332 12.8667Z" fill="white"/>
</g>
</svg>
