<svg width="20" height="20" viewBox="0 0 20 20" fill="none" xmlns="http://www.w3.org/2000/svg">
<mask id="mask0_1683_367" style="mask-type:alpha" maskUnits="userSpaceOnUse" x="0" y="0" width="20" height="20">
<rect width="20" height="20" fill="#D9D9D9"/>
</mask>
<g mask="url(#mask0_1683_367)">
<path d="M10 12.2179C9.89957 12.2179 9.80609 12.2019 9.71956 12.1698C9.63302 12.1378 9.55076 12.0828 9.47277 12.0048L5.72759 8.25959C5.6122 8.14421 5.55317 7.99919 5.5505 7.8245C5.54782 7.64982 5.60685 7.50212 5.72759 7.3814C5.84831 7.26068 5.99467 7.20032 6.16667 7.20032C6.33867 7.20032 6.48503 7.26068 6.60575 7.3814L10 10.7756L13.3943 7.3814C13.5096 7.26602 13.6547 7.207 13.8293 7.20432C14.004 7.20165 14.1517 7.26068 14.2724 7.3814C14.3932 7.50212 14.4535 7.64849 14.4535 7.8205C14.4535 7.9925 14.3932 8.13887 14.2724 8.25959L10.5272 12.0048C10.4492 12.0828 10.367 12.1378 10.2804 12.1698C10.1939 12.2019 10.1004 12.2179 10 12.2179Z" fill="#696972"/>
</g>
</svg>
