<svg width="28" height="28" viewBox="0 0 28 28" fill="none" xmlns="http://www.w3.org/2000/svg">
<mask id="mask0_1089_421" style="mask-type:alpha" maskUnits="userSpaceOnUse" x="0" y="0" width="28" height="28">
<rect width="28" height="28" fill="#D9D9D9"/>
</mask>
<g mask="url(#mask0_1089_421)">
<path d="M3.71525 14L12.5035 22.7882C12.7352 23.02 12.8482 23.2929 12.8424 23.6069C12.8363 23.9212 12.7174 24.1942 12.4857 24.4259C12.2537 24.6577 11.9807 24.7736 11.6667 24.7736C11.3526 24.7736 11.0796 24.6577 10.8477 24.4259L1.89817 15.4942C1.6872 15.2833 1.53086 15.0469 1.42917 14.7852C1.32747 14.5235 1.27663 14.2617 1.27663 14C1.27663 13.7383 1.32747 13.4766 1.42917 13.2148C1.53086 12.9531 1.6872 12.7168 1.89817 12.5058L10.8477 3.55602C11.0796 3.32424 11.3557 3.21136 11.6757 3.21739C11.9958 3.22342 12.2717 3.34232 12.5035 3.5741C12.7352 3.80588 12.8511 4.07888 12.8511 4.3931C12.8511 4.70713 12.7352 4.98003 12.5035 5.21181L3.71525 14Z" fill="#ABABAB"/>
</g>
</svg>
