<svg width="157" height="176" viewBox="0 0 157 176" fill="none" xmlns="http://www.w3.org/2000/svg">
<g clip-path="url(#clip0_1122_1235)">
<path d="M137.265 135.1H3.10147V0.937012H137.265V135.1Z" fill="white"/>
<path d="M137.265 135.1H3.10147V0.937012H137.265V135.1ZM5.0837 133.118H135.282V2.91926H5.0837V133.118Z" fill="#EBEDF0"/>
<path d="M113.497 21.927H55.399V23.7368H113.497V21.927Z" fill="#EBEDF0"/>
<path d="M113.497 26.6323H55.399V28.4421H113.497V26.6323Z" fill="#EBEDF0"/>
<path d="M113.497 31.3379H55.399V33.1477H113.497V31.3379Z" fill="#EBEDF0"/>
<path d="M113.497 62.3315H55.399V64.1413H113.497V62.3315Z" fill="#EBEDF0"/>
<path d="M113.497 67.0371H55.399V68.8469H113.497V67.0371Z" fill="#EBEDF0"/>
<path d="M113.497 71.7424H55.399V73.5522H113.497V71.7424Z" fill="#EBEDF0"/>
<path d="M113.497 102.736H55.399V104.546H113.497V102.736Z" fill="#EBEDF0"/>
<path d="M113.497 107.442H55.399V109.252H113.497V107.442Z" fill="#EBEDF0"/>
<path d="M113.497 112.147H55.399V113.957H113.497V112.147Z" fill="#EBEDF0"/>
<path d="M32.1408 36.3464C31.1483 35.8233 30.1123 35.3874 29.0444 35.0433L28.9083 33.5371L23.3861 32.9421L22.6843 34.8674L20.7025 35.6111C20.6316 35.6379 20.5641 35.6731 20.5014 35.7158H20.4993C20.3887 35.7906 20.2945 35.8871 20.2224 35.9994C20.1504 36.1118 20.102 36.2377 20.0803 36.3694C20.0591 36.5004 20.0641 36.6342 20.095 36.7633L20.1998 37.1927C20.3506 37.2828 20.5056 37.3687 20.6606 37.4504L20.7591 37.5007C20.9854 37.618 21.2158 37.729 21.4525 37.8317C21.5007 37.8526 21.5531 37.8736 21.6012 37.8945C21.6054 37.8966 21.6075 37.8966 21.6117 37.8987C21.7228 37.9448 21.8338 37.9888 21.9469 38.0307C22.3185 38.1726 22.6975 38.2943 23.0823 38.3952C24.0644 38.6569 25.0764 38.7894 26.0927 38.7891C26.4635 38.7891 26.8301 38.7723 27.1926 38.7367C28.0207 38.6602 28.8382 38.4952 29.6311 38.2444C29.6331 38.2444 29.6353 38.2423 29.6373 38.2423C30.1382 38.0827 30.6275 37.8888 31.1017 37.662C31.1038 37.6599 31.108 37.6599 31.1101 37.6578C31.2169 37.6075 31.3196 37.5531 31.4243 37.5007L31.4746 37.4755C31.5583 37.4315 31.6422 37.3875 31.726 37.3415C31.9355 37.2262 32.1408 37.1047 32.3439 36.9748C32.4005 36.9413 32.455 36.9057 32.5116 36.868C32.5912 36.8156 32.6708 36.7612 32.7483 36.7046C32.5534 36.5789 32.3503 36.4595 32.1408 36.3464Z" fill="#363A3D"/>
<path d="M21.7772 37.2743L21.4316 35.7136H20.5286C20.5195 35.7137 20.5105 35.7144 20.5014 35.7157H20.4993C20.1748 35.7432 19.8623 35.8512 19.5901 36.03C19.4055 36.1478 19.2414 36.295 19.1041 36.4657C19.3723 36.6689 19.6509 36.8574 19.9379 37.0376L19.9505 37.0439C20.0321 37.0942 20.116 37.1444 20.1998 37.1926C20.3506 37.2827 20.5056 37.3686 20.6606 37.4503L20.7591 37.5006C20.9854 37.6179 21.2158 37.7289 21.4525 37.8316C21.5007 37.8525 21.5531 37.8735 21.6013 37.8944C21.6055 37.8965 21.6075 37.8965 21.6117 37.8986C21.7228 37.9447 21.8338 37.9887 21.9469 38.0306L21.7772 37.2743Z" fill="#363A3D"/>
<path d="M25.9305 31.9899C28.127 31.9899 29.9076 30.2093 29.9076 28.0128C29.9076 25.8163 28.127 24.0356 25.9305 24.0356C23.734 24.0356 21.9534 25.8163 21.9534 28.0128C21.9534 30.2093 23.734 31.9899 25.9305 31.9899Z" fill="#FFDED6"/>
<path d="M23.2603 26.0756C23.672 26.5628 24.3688 26.7003 25.0115 26.7567C26.5141 26.8397 28.0211 26.7167 29.4904 26.391C29.5814 27.2734 29.3332 28.2248 29.8529 28.9507C30.0966 28.0719 30.2383 27.168 30.2752 26.2568C30.314 25.8659 30.2629 25.4713 30.1259 25.1031C30.0527 24.9185 29.9291 24.7583 29.7693 24.6405C29.6095 24.5226 29.4199 24.452 29.222 24.4366C29.5183 24.2118 29.8653 24.0635 30.2326 24.0046L28.9697 23.37L29.294 23.037L27.0078 22.8971L27.6699 22.4764C26.6733 22.3395 25.665 22.3077 24.6617 22.3815C24.1929 22.3817 23.7329 22.5095 23.3312 22.7513C22.9537 23.0213 22.7356 23.5578 22.97 23.9541C22.6766 24.0023 22.4003 24.1245 22.1674 24.3093C21.9345 24.4942 21.7527 24.7354 21.6391 25.0101C21.4954 25.4468 21.4607 25.9121 21.538 26.3653C21.6242 27.0924 21.7931 27.8073 22.0417 28.496L23.2603 26.0756Z" fill="#202224"/>
<path d="M37.1141 23.7014C36.5561 22.0983 35.6551 20.6363 34.474 19.4172C33.2929 18.1981 31.86 17.2514 30.2754 16.6429C28.6908 16.0345 26.9925 15.7791 25.2991 15.8944C23.6056 16.0098 21.9576 16.4931 20.4702 17.3108C18.9827 18.1285 17.6915 19.2608 16.6865 20.6287C15.6816 21.9967 14.9872 23.5674 14.6517 25.2313C14.3162 26.8953 14.3477 28.6123 14.744 30.2628C15.1403 31.9133 15.8919 33.4575 16.9463 34.7877C17.051 34.9197 17.16 35.0517 17.2711 35.1795C17.2795 35.1878 17.2857 35.1962 17.2941 35.2046C17.5672 35.5192 17.8574 35.8186 18.1635 36.1012C18.2431 36.1745 18.3269 36.25 18.4107 36.3212C18.5699 36.4637 18.7333 36.5998 18.903 36.7297C18.97 36.7821 19.035 36.8344 19.1041 36.8847C19.3722 37.0879 19.6509 37.2765 19.9379 37.4566L19.9505 37.4629C20.0321 37.5132 20.116 37.5635 20.1998 37.6117C20.3506 37.7017 20.5056 37.7876 20.6606 37.8693L20.7591 37.9196C20.9854 38.0369 21.2158 38.148 21.4525 38.2506C21.5007 38.2716 21.5531 38.2925 21.6013 38.3135C21.6055 38.3156 21.6075 38.3156 21.6117 38.3177C21.7228 38.3638 21.8338 38.4077 21.9469 38.4496C22.3185 38.5916 22.6975 38.7132 23.0823 38.8142C24.0644 39.0759 25.0764 39.2083 26.0927 39.208C26.4636 39.208 26.8302 39.1912 27.1926 39.1556C28.0207 39.0792 28.8382 38.9141 29.6311 38.6633C29.6331 38.6633 29.6353 38.6612 29.6373 38.6612C30.1382 38.5017 30.6275 38.3078 31.1017 38.0809C31.1038 38.0788 31.108 38.0788 31.1101 38.0768C31.2169 38.0265 31.3196 37.972 31.4244 37.9196L31.4746 37.8945C31.5584 37.8505 31.6422 37.8065 31.726 37.7604C31.9355 37.6452 32.1408 37.5237 32.344 37.3938C32.4005 37.3603 32.455 37.3247 32.5116 37.287C32.5912 37.2346 32.6708 37.1801 32.7483 37.1235C32.8509 37.0523 32.9536 36.979 33.0542 36.9036C33.0856 36.8805 33.1191 36.8575 33.1505 36.8324C35.1132 35.3426 36.5538 33.2698 37.2658 30.9109C37.9778 28.552 37.9247 26.0282 37.1141 23.7014ZM32.7651 36.3233C32.6959 36.3778 32.6248 36.4301 32.5535 36.4783C32.4843 36.5307 32.4153 36.581 32.344 36.627C32.2832 36.671 32.2224 36.7129 32.1596 36.7528L32.1408 36.7653C32.0947 36.7967 32.0486 36.8261 32.0025 36.8554C31.8286 36.9643 31.6526 37.0691 31.4746 37.1696L31.418 37.2011C31.3384 37.2451 31.2589 37.287 31.1793 37.3289C31.1687 37.3351 31.1562 37.3393 31.1457 37.3456L31.1332 37.3519C31.0326 37.4043 30.9299 37.4546 30.8273 37.5027C30.4312 37.6935 30.0232 37.8586 29.606 37.9971C29.5514 38.016 29.497 38.0349 29.4426 38.0516C28.6921 38.2903 27.9181 38.4476 27.134 38.5209C26.7904 38.5523 26.4426 38.569 26.0928 38.569C25.1315 38.571 24.1742 38.4456 23.2458 38.1962C22.7694 38.0718 22.3024 37.9136 21.8485 37.7227C21.8254 37.7122 21.8002 37.7039 21.7772 37.6934C21.7521 37.6829 21.729 37.6745 21.706 37.664C21.6808 37.6536 21.6578 37.6431 21.6327 37.6305C21.4358 37.5446 21.2409 37.4504 21.0503 37.3519L20.9582 37.3037C20.7255 37.1822 20.4972 37.0523 20.2752 36.9141C20.2102 36.8743 20.1432 36.8324 20.0803 36.7884C20.0636 36.7779 20.0489 36.7674 20.0321 36.7569C19.8834 36.6585 19.7347 36.5558 19.5901 36.449C19.4917 36.3757 19.3932 36.3023 19.2968 36.2269C19.1355 36.1054 18.9805 35.9755 18.8297 35.8415C18.7501 35.7744 18.6726 35.7011 18.5972 35.632C18.3001 35.3577 18.019 35.0667 17.755 34.7605C17.667 34.6599 17.5811 34.5594 17.4994 34.4546C17.4808 34.4339 17.4633 34.4122 17.447 34.3897C16.0859 32.6721 15.2672 30.588 15.0953 28.4032C14.9234 26.2185 15.4062 24.032 16.482 22.1227C17.5578 20.2134 19.1779 18.6678 21.1357 17.683C23.0935 16.6982 25.3003 16.3188 27.4746 16.5933C29.6488 16.8677 31.6921 17.7836 33.3437 19.224C34.9954 20.6644 36.1806 22.5642 36.7482 24.6809C37.3158 26.7977 37.2401 29.0355 36.5307 31.109C35.8213 33.1826 34.5104 34.9978 32.7651 36.3233Z" fill="#EBEDF0"/>
<path d="M37.1142 64.1062C36.5562 62.5031 35.6552 61.0411 34.4741 59.822C33.2929 58.6029 31.8601 57.6562 30.2755 57.0477C28.6909 56.4393 26.9926 56.1839 25.2992 56.2992C23.6057 56.4145 21.9577 56.8979 20.4703 57.7156C18.9828 58.5333 17.6916 59.6655 16.6867 61.0335C15.6817 62.4015 14.9873 63.9722 14.6518 65.6361C14.3163 67.3 14.3478 69.0171 14.7441 70.6676C15.1404 72.3181 15.892 73.8623 16.9464 75.1925C17.0511 75.3245 17.1601 75.4564 17.2711 75.5842C17.2795 75.5926 17.2857 75.601 17.2941 75.6094C17.5672 75.924 17.8575 76.2233 18.1636 76.506C18.2431 76.5793 18.3269 76.6547 18.4107 76.726C18.57 76.8684 18.7333 77.0046 18.903 77.1345C19.2343 77.3956 19.5798 77.6383 19.9379 77.8614L19.9505 77.8677C20.183 78.0122 20.4197 78.1463 20.6607 78.2741L20.7591 78.3244C20.9854 78.4417 21.2158 78.5527 21.4525 78.6554C21.5007 78.6763 21.5531 78.6973 21.6012 78.7182C21.6054 78.7203 21.6076 78.7203 21.6118 78.7224C22.0901 78.9213 22.5814 79.0872 23.0824 79.2189C24.0644 79.4807 25.0764 79.6131 26.0927 79.6128C26.4635 79.6128 26.8301 79.596 27.1926 79.5604C28.0207 79.4839 28.8382 79.3189 29.6311 79.0681C29.6332 79.0681 29.6353 79.066 29.6373 79.066C30.1382 78.9064 30.6275 78.7125 31.1017 78.4857C31.1038 78.4836 31.1081 78.4836 31.1101 78.4815C31.2169 78.4312 31.3196 78.3768 31.4243 78.3244L31.4747 78.2992C31.5584 78.2552 31.6422 78.2112 31.726 78.1652C31.9355 78.0499 32.1408 77.9284 32.344 77.7985C32.4006 77.765 32.455 77.7294 32.5116 77.6917C32.6959 77.5702 32.8782 77.4403 33.0541 77.3083C33.0856 77.2853 33.1191 77.2623 33.1506 77.2371C35.1132 75.7473 36.5537 73.6745 37.2658 71.3156C37.9778 68.9567 37.9247 66.433 37.1142 64.1062Z" fill="white"/>
<path d="M29.944 72.7527C30.91 72.7527 31.6931 71.9697 31.6931 71.0037C31.6931 70.0377 30.91 69.2546 29.944 69.2546C28.9781 69.2546 28.195 70.0377 28.195 71.0037C28.195 71.9697 28.9781 72.7527 29.944 72.7527Z" fill="#202224"/>
<path d="M30.4313 69.3029C30.734 69.3029 31.0316 69.3815 31.2948 69.5309C31.5581 69.6803 31.7781 69.8956 31.9332 70.1555C32.0884 70.4154 32.1735 70.7112 32.1801 71.0138C32.1867 71.3165 32.1147 71.6157 31.971 71.8821C32.1226 71.6924 32.2331 71.4732 32.2953 71.2384C32.3574 71.0037 32.3701 70.7586 32.3323 70.5187C32.2945 70.2788 32.2072 70.0494 32.0759 69.8451C31.9446 69.6408 31.7721 69.4661 31.5696 69.3321C31.367 69.1982 31.1388 69.1079 30.8994 69.067C30.66 69.0261 30.4147 69.0355 30.1792 69.0946C29.9436 69.1538 29.723 69.2613 29.5313 69.4104C29.3396 69.5595 29.1811 69.7469 29.0658 69.9607C29.2293 69.7554 29.4371 69.5896 29.6735 69.4757C29.91 69.3618 30.1688 69.3028 30.4313 69.3029Z" fill="#202224"/>
<path d="M26.6755 71.0001C29.5132 71.0001 31.8135 68.6998 31.8135 65.8621C31.8135 63.0245 29.5132 60.7241 26.6755 60.7241C23.8379 60.7241 21.5375 63.0245 21.5375 65.8621C21.5375 68.6998 23.8379 71.0001 26.6755 71.0001Z" fill="#202224"/>
<path d="M22.643 62.6742C23.5283 61.6785 24.7659 61.0658 26.0944 60.9653C27.4229 60.8647 28.7386 61.2843 29.7636 62.1354C29.7217 62.0954 29.6798 62.0551 29.6365 62.0164C28.6215 61.1071 27.2869 60.6383 25.9263 60.7131C24.5657 60.7878 23.2904 61.4 22.3812 62.415C21.4719 63.4299 21.0031 64.7645 21.0779 66.1252C21.1526 67.4858 21.7648 68.761 22.7798 69.6703C22.7895 69.679 22.7993 69.6877 22.8091 69.6964C22.8527 69.7351 22.8975 69.7718 22.9422 69.8089C21.9769 68.8905 21.4061 67.6331 21.3503 66.302C21.2946 64.9708 21.7579 63.67 22.643 62.6742Z" fill="#202224"/>
<path d="M26.632 70.9564C28.4595 70.9564 29.9411 69.4749 29.9411 67.6473C29.9411 65.8197 28.4595 64.3381 26.632 64.3381C24.8044 64.3381 23.3228 65.8197 23.3228 67.6473C23.3228 69.4749 24.8044 70.9564 26.632 70.9564Z" fill="#FFDED6"/>
<path d="M32.5535 76.2693V77.3796C32.3503 77.5095 32.145 77.631 31.9355 77.7462C31.8517 77.7923 31.7679 77.8363 31.6842 77.8803L31.6338 77.9054C31.5291 77.9578 31.4264 78.0123 31.3196 78.0626C31.3176 78.0647 31.3133 78.0647 31.3112 78.0667C30.837 78.2936 30.3477 78.4875 29.8468 78.647C29.8448 78.647 29.8427 78.6491 29.8406 78.6491C29.0477 78.9 28.2302 79.065 27.4021 79.1414C27.0396 79.1771 26.673 79.1938 26.3022 79.1938C25.2859 79.1941 24.2739 79.0617 23.2919 78.8C22.7909 78.6683 22.2996 78.5024 21.8213 78.3035C21.8171 78.3014 21.8149 78.3014 21.8107 78.2993C21.7626 78.2783 21.7102 78.2574 21.662 78.2364C21.4253 78.1338 21.1948 78.0228 20.9686 77.9054L20.8702 77.8552C20.6292 77.7274 20.3925 77.5933 20.16 77.4487L20.1474 77.4425C19.7893 77.2194 19.4438 76.9767 19.1125 76.7155C18.9428 76.5856 18.7795 76.4495 18.6202 76.307C18.5364 76.2358 18.4526 76.1604 18.3731 76.0871C18.067 75.8044 17.7767 75.505 17.5036 75.1904C17.5398 74.9722 17.5931 74.7572 17.6628 74.5473L17.6649 74.5452C17.6774 74.5094 17.6921 74.4744 17.7089 74.4404C17.7204 74.4104 17.7337 74.381 17.7487 74.3525C18.1237 73.6507 18.8025 73.4768 19.6446 73.4391C20.1202 73.4181 20.646 73.4412 21.2012 73.4349C21.4945 73.4328 21.7982 73.4223 22.102 73.3951C24.0188 73.2212 23.6711 72.0899 23.7569 71.4803C23.8429 70.8896 24.375 71.4007 24.4106 71.4342L24.4126 71.4363C25.4974 71.944 26.6975 72.1544 27.8902 72.0459C28.0955 72.0208 28.3008 72.0061 28.5061 71.9999C29.0466 71.9936 28.9293 72.1486 28.7429 72.2764C28.6524 72.3359 28.5579 72.3891 28.4601 72.4356C28.4601 72.4356 28.3741 72.9593 28.2862 73.7428C28.2024 74.4928 29.6395 74.8448 29.7589 74.872C29.7613 74.8736 29.7643 74.8744 29.7672 74.8741C30.2921 74.738 30.8446 74.7525 31.3616 74.916H31.3636C31.659 75.0246 31.9225 75.2053 32.1303 75.4416C32.3381 75.678 32.4836 75.9625 32.5535 76.2693Z" fill="#00B887"/>
<path d="M21.8422 77.6163C21.8422 77.7714 21.8381 77.9201 21.8317 78.0605C21.8297 78.1443 21.8255 78.226 21.8213 78.3035C21.8171 78.3014 21.8149 78.3014 21.8107 78.2993C21.7626 78.2783 21.7102 78.2574 21.662 78.2364C21.4253 78.1338 21.1949 78.0228 20.9686 77.9054L20.8702 77.8552C20.6292 77.7274 20.3925 77.5933 20.16 77.4488C20.1662 77.3754 20.1768 77.3021 20.1872 77.2288C20.2102 77.0675 20.2291 76.9041 20.2417 76.7428C20.3241 75.6095 20.1187 74.4738 19.6446 73.4412V73.4391C19.6027 73.3553 19.5776 73.3092 19.5776 73.3092C19.5776 73.3092 20.1872 72.7855 21.0565 73.3092C21.1121 73.3418 21.1611 73.3844 21.2012 73.4349C21.7249 74.0529 21.8673 76.131 21.8422 77.6163Z" fill="#202224"/>
<path d="M31.3552 77.3314C31.3468 77.566 31.3342 77.8111 31.3196 78.0604V78.0625C31.3176 78.0646 31.3133 78.0646 31.3112 78.0667C30.837 78.2935 30.3477 78.4874 29.8468 78.647C29.8448 78.647 29.8427 78.6491 29.8406 78.6491L29.8176 78.0604L29.8154 77.9829L29.7044 75.117C29.7015 75.0522 29.7117 74.9874 29.7344 74.9265C29.7572 74.8657 29.792 74.8101 29.8369 74.7632C29.8817 74.7162 29.9356 74.6787 29.9953 74.6532C30.055 74.6276 30.1192 74.6143 30.1842 74.6143H31.2463C31.2986 74.6143 31.3364 74.7211 31.3615 74.9138V74.9159C31.4131 75.7203 31.4109 76.5273 31.3552 77.3314Z" fill="#202224"/>
<path d="M23.8017 63.5107V66.8207H24.568L25.5432 65.7758L25.4127 66.8207H28.8002L28.5907 65.7758L29.0097 66.8207H29.5498V63.5107H23.8017Z" fill="#202224"/>
<path d="M23.2792 67.4297C23.4235 67.4297 23.5405 67.2153 23.5405 66.9508C23.5405 66.6863 23.4235 66.4719 23.2792 66.4719C23.135 66.4719 23.018 66.6863 23.018 66.9508C23.018 67.2153 23.135 67.4297 23.2792 67.4297Z" fill="#FFDED6"/>
<path d="M29.9849 67.4297C30.1291 67.4297 30.2461 67.2153 30.2461 66.9508C30.2461 66.6863 30.1291 66.4719 29.9849 66.4719C29.8406 66.4719 29.7236 66.6863 29.7236 66.9508C29.7236 67.2153 29.8406 67.4297 29.9849 67.4297Z" fill="#FFDED6"/>
<path d="M33.2636 76.8895C33.0877 77.0215 32.9054 77.1513 32.7211 77.2729C32.6645 77.3106 32.6101 77.3462 32.5535 77.3797C32.3503 77.5096 32.145 77.6311 31.9355 77.7463C31.8517 77.7924 31.7679 77.8364 31.6842 77.8804V75.5718C31.6842 75.5718 32.0193 75.8399 32.5535 76.2861C32.6205 76.3427 32.6897 76.4014 32.763 76.4642C32.918 76.5941 33.0856 76.7366 33.2636 76.8895Z" fill="#00B887"/>
<path d="M37.1142 64.1062C36.5562 62.5031 35.6552 61.0411 34.4741 59.822C33.2929 58.6029 31.8601 57.6562 30.2755 57.0477C28.6909 56.4393 26.9926 56.1839 25.2992 56.2992C23.6057 56.4145 21.9577 56.8979 20.4703 57.7156C18.9828 58.5333 17.6916 59.6655 16.6867 61.0335C15.6817 62.4015 14.9873 63.9722 14.6518 65.6361C14.3163 67.3 14.3478 69.0171 14.7441 70.6676C15.1404 72.3181 15.892 73.8623 16.9464 75.1925C17.0511 75.3245 17.1601 75.4564 17.2711 75.5842C17.2795 75.5926 17.2857 75.601 17.2941 75.6094C17.5672 75.924 17.8575 76.2233 18.1636 76.506C18.2431 76.5793 18.3269 76.6547 18.4107 76.726C18.57 76.8684 18.7333 77.0046 18.903 77.1345C19.2343 77.3956 19.5798 77.6383 19.9379 77.8614L19.9505 77.8677C20.183 78.0122 20.4197 78.1463 20.6607 78.2741L20.7591 78.3244C20.9854 78.4417 21.2158 78.5527 21.4525 78.6554C21.5007 78.6763 21.5531 78.6973 21.6012 78.7182C21.6054 78.7203 21.6076 78.7203 21.6118 78.7224C22.0901 78.9213 22.5814 79.0872 23.0824 79.2189C24.0644 79.4807 25.0764 79.6131 26.0927 79.6128C26.4635 79.6128 26.8301 79.596 27.1926 79.5604C28.0207 79.4839 28.8382 79.3189 29.6311 79.0681C29.6332 79.0681 29.6353 79.066 29.6373 79.066C30.1382 78.9064 30.6275 78.7125 31.1017 78.4857C31.1038 78.4836 31.1081 78.4836 31.1101 78.4815C31.2169 78.4312 31.3196 78.3768 31.4243 78.3244L31.4747 78.2992C31.5584 78.2552 31.6422 78.2112 31.726 78.1652C31.9355 78.0499 32.1408 77.9284 32.344 77.7985C32.4006 77.765 32.455 77.7294 32.5116 77.6917C32.6959 77.5702 32.8782 77.4403 33.0541 77.3083C33.0856 77.2853 33.1191 77.2623 33.1506 77.2371C35.1132 75.7473 36.5537 73.6745 37.2658 71.3156C37.9778 68.9567 37.9247 66.433 37.1142 64.1062ZM32.7651 76.7281C32.6959 76.7825 32.6247 76.8349 32.5535 76.8831C32.4844 76.9354 32.4152 76.9857 32.344 77.0318C32.2833 77.0758 32.2225 77.1177 32.1596 77.1575C32.1072 77.1931 32.0549 77.2266 32.0025 77.2602C31.8287 77.3691 31.6528 77.4738 31.4747 77.5744L31.418 77.6058C31.3384 77.6498 31.2588 77.6917 31.1792 77.7336C31.1687 77.7399 31.1561 77.7441 31.1457 77.7504L31.1331 77.7567C31.0326 77.809 30.93 77.8593 30.8273 77.9075C30.4312 78.0983 30.0232 78.2634 29.6059 78.4019C29.5515 78.4207 29.497 78.4396 29.4426 78.4564C28.6921 78.695 27.9181 78.8524 27.134 78.9256C26.7904 78.957 26.4426 78.9738 26.0927 78.9738C25.1314 78.9758 24.1741 78.8504 23.2458 78.6009C22.7693 78.4765 22.3024 78.3183 21.8485 78.1275C21.8003 78.1086 21.7521 78.0877 21.706 78.0688C21.6809 78.0583 21.6578 78.0478 21.6327 78.0353C21.4357 77.9494 21.241 77.8551 21.0503 77.7567L20.9581 77.7085C20.7256 77.587 20.4972 77.4571 20.2752 77.3188C20.1935 77.2685 20.1118 77.2162 20.0322 77.1617C19.7808 76.9962 19.5357 76.8181 19.2968 76.6317C19.1355 76.5102 18.9806 76.3803 18.8297 76.2462C18.7501 76.1792 18.6725 76.1059 18.5972 76.0367C18.3001 75.7624 18.019 75.4715 17.755 75.1652C17.667 75.0647 17.5811 74.9641 17.4994 74.8594C17.4808 74.8387 17.4633 74.817 17.447 74.7944C16.0859 73.0768 15.2672 70.9928 15.0953 68.808C14.9234 66.6232 15.4062 64.4368 16.482 62.5275C17.5578 60.6182 19.1779 59.0725 21.1357 58.0877C23.0935 57.103 25.3003 56.7236 27.4745 56.9981C29.6488 57.2725 31.6921 58.1884 33.3437 59.6288C34.9954 61.0692 36.1806 62.9689 36.7482 65.0857C37.3158 67.2024 37.24 69.4403 36.5306 71.5138C35.8212 73.5873 34.5103 75.4026 32.7651 76.7281Z" fill="#EBEDF0"/>
<path d="M26.1587 113.592C28.684 113.592 30.7311 111.545 30.7311 109.02C30.7311 106.494 28.684 104.447 26.1587 104.447C23.6334 104.447 21.5862 106.494 21.5862 109.02C21.5862 111.545 23.6334 113.592 26.1587 113.592Z" fill="#202224"/>
<path d="M22.5896 106.554C23.3285 105.816 23.4783 104.767 22.9241 104.213C22.3699 103.659 21.3217 103.809 20.5828 104.548C19.8439 105.287 19.6941 106.335 20.2483 106.889C20.8025 107.443 21.8507 107.293 22.5896 106.554Z" fill="#202224"/>
<path d="M30.9244 105.102C31.2322 104.382 30.7028 103.465 29.7418 103.054C28.7809 102.644 27.7523 102.895 27.4445 103.616C27.1366 104.337 27.666 105.254 28.627 105.664C29.5879 106.075 30.6165 105.823 30.9244 105.102Z" fill="#202224"/>
<path d="M31.628 117.889L31.0893 117.042C30.8607 116.531 30.4391 116.132 29.9167 115.931C29.3943 115.731 28.8138 115.746 28.3024 115.972C27.7909 116.199 27.3901 116.619 27.1878 117.141C26.9855 117.663 26.9982 118.243 27.2231 118.756L27.3763 119.305L27.5506 119.928C28.2564 119.839 28.9528 119.687 29.6316 119.474C29.6336 119.474 29.6354 119.473 29.6368 119.471C30.1385 119.312 30.6284 119.118 31.1026 118.89C31.1052 118.888 31.1077 118.888 31.1105 118.885C31.2161 118.835 31.3191 118.782 31.4247 118.729C31.4419 118.721 31.4587 118.713 31.4749 118.703C31.5593 118.66 31.6439 118.616 31.7258 118.571C31.8102 118.526 31.8921 118.478 31.9713 118.428L31.628 117.889Z" fill="#EBEDF0"/>
<path d="M26.3037 113.992C28.4469 113.992 30.1843 112.255 30.1843 110.111C30.1843 107.968 28.4469 106.231 26.3037 106.231C24.1605 106.231 22.4231 107.968 22.4231 110.111C22.4231 112.255 24.1605 113.992 26.3037 113.992Z" fill="#FFDED6"/>
<path d="M31.908 117.723C31.4799 117.011 30.9486 116.367 30.3313 115.811C29.9086 115.433 29.3614 115.224 28.7944 115.225H23.3279C23.0129 115.224 22.7012 115.289 22.4121 115.414C22.123 115.539 21.8626 115.722 21.6471 115.952C21.4315 116.182 21.2653 116.453 21.1588 116.749C21.0523 117.046 21.0076 117.361 21.0277 117.675C21.0396 117.853 21.0716 118.028 21.1229 118.198C21.1618 118.322 21.2104 118.442 21.2681 118.557L21.5374 119.096C21.5586 119.104 21.5797 119.115 21.6007 119.122C21.606 119.125 21.6087 119.125 21.6113 119.128C21.7222 119.173 21.8332 119.218 21.9467 119.26C22.3183 119.402 22.6974 119.524 23.0823 119.624C23.7019 119.791 24.3344 119.905 24.9731 119.965C25.3455 119.999 25.7179 120.018 26.0928 120.018C26.4652 120.018 26.8296 119.999 27.194 119.965C27.3129 119.954 27.4317 119.941 27.5506 119.928C28.2564 119.839 28.9528 119.687 29.6315 119.474C29.6335 119.473 29.6354 119.473 29.6368 119.471C30.1385 119.312 30.6283 119.118 31.1025 118.89C31.1051 118.887 31.1077 118.887 31.1104 118.885C31.216 118.835 31.319 118.782 31.4246 118.729C31.4419 118.721 31.4586 118.712 31.4748 118.703C31.5593 118.66 31.6439 118.615 31.7257 118.571C31.8102 118.526 31.892 118.478 31.9712 118.428C32.0558 118.383 32.135 118.333 32.2169 118.283C32.1166 118.085 32.0136 117.9 31.908 117.723Z" fill="#EBEDF0"/>
<path d="M24.3182 115.932C23.8123 115.696 23.2333 115.669 22.7078 115.858C22.1822 116.047 21.7529 116.437 21.5137 116.941L21.0277 117.675L20.7953 118.027L20.4415 118.56C20.5154 118.6 20.5867 118.639 20.6607 118.679L20.7583 118.729C20.9855 118.845 21.2152 118.956 21.453 119.059C21.4793 119.072 21.5084 119.083 21.5374 119.096C21.5586 119.104 21.5797 119.115 21.6007 119.123C21.606 119.125 21.6087 119.125 21.6113 119.128C21.7222 119.173 21.8332 119.218 21.9467 119.26C22.3183 119.402 22.6974 119.524 23.0823 119.624C23.7019 119.791 24.3344 119.905 24.9731 119.965L25.158 119.339L25.3376 118.742C25.5743 118.234 25.6 117.653 25.4089 117.127C25.2177 116.6 24.8255 116.17 24.3182 115.932Z" fill="#EBEDF0"/>
<path d="M22.2261 107.671C23.1129 108.282 24.1654 108.607 25.2424 108.603C24.8582 108.869 24.4208 109.049 23.9604 109.13C25.3924 109.437 26.8723 109.446 28.3076 109.155C28.6266 109.103 28.9345 108.998 29.2176 108.842C29.3587 108.763 29.4817 108.656 29.5784 108.526C29.6752 108.397 29.7437 108.248 29.7793 108.091C29.8747 107.546 29.4502 107.051 29.0089 106.717C28.3334 106.214 27.5545 105.868 26.7286 105.703C25.9027 105.538 25.0505 105.558 24.2335 105.763C23.6892 105.873 23.1938 106.152 22.8192 106.562C22.6379 106.771 22.5285 107.032 22.507 107.308C22.4856 107.583 22.5533 107.858 22.7002 108.092L22.2261 107.671Z" fill="#202224"/>
<path d="M37.1156 104.511C36.5577 102.908 35.6568 101.445 34.4757 100.226C33.2946 99.0068 31.8617 98.0598 30.277 97.4513C28.6923 96.8427 26.9939 96.5872 25.3003 96.7025C23.6067 96.8178 21.9587 97.3012 20.4711 98.1189C18.9835 98.9366 17.6922 100.069 16.6872 101.437C15.6823 102.805 14.9878 104.376 14.6524 106.04C14.3169 107.704 14.3485 109.421 14.7449 111.072C15.1414 112.722 15.8931 114.267 16.9477 115.597C17.0506 115.729 17.1616 115.861 17.2725 115.988C17.2789 115.997 17.2859 116.006 17.2937 116.014C17.5672 116.329 17.8581 116.628 18.1651 116.909C18.2443 116.983 18.3261 117.06 18.4107 117.131C18.5691 117.274 18.7328 117.409 18.9045 117.538C18.9705 117.591 19.0365 117.644 19.1052 117.694C19.3719 117.897 19.6518 118.085 19.9371 118.267C19.942 118.267 19.9466 118.269 19.9502 118.272C20.0321 118.322 20.1167 118.372 20.2012 118.42C20.2803 118.468 20.3622 118.515 20.4415 118.56C20.5154 118.6 20.5867 118.639 20.6607 118.679L20.7583 118.729C20.9855 118.845 21.2152 118.956 21.453 119.059C21.4793 119.072 21.5084 119.083 21.5374 119.096C21.5586 119.104 21.5797 119.115 21.6007 119.122C21.606 119.125 21.6087 119.125 21.6113 119.128C21.7222 119.173 21.8332 119.218 21.9467 119.26C22.3183 119.402 22.6974 119.523 23.0823 119.624C23.7019 119.791 24.3344 119.905 24.9731 119.965C25.3455 119.999 25.7179 120.018 26.0928 120.018C26.4652 120.018 26.8296 119.999 27.1941 119.965C27.3129 119.954 27.4317 119.941 27.5506 119.928C28.2564 119.839 28.9528 119.687 29.6315 119.474C29.6335 119.473 29.6354 119.472 29.6368 119.471C30.1385 119.312 30.6283 119.118 31.1025 118.89C31.1051 118.887 31.1077 118.887 31.1104 118.885C31.216 118.835 31.319 118.782 31.4247 118.729C31.4419 118.721 31.4587 118.712 31.4748 118.703C31.5593 118.66 31.6439 118.615 31.7257 118.57C31.8102 118.526 31.892 118.478 31.9713 118.428C32.0558 118.383 32.135 118.333 32.2169 118.283C32.2592 118.256 32.3015 118.23 32.3437 118.203C32.4018 118.169 32.4546 118.135 32.5127 118.095C32.5919 118.045 32.6712 117.99 32.7477 117.934C32.8507 117.863 32.9537 117.789 33.054 117.712C33.0878 117.69 33.1205 117.666 33.1518 117.641C35.1129 116.15 36.5524 114.077 37.2643 111.719C37.9763 109.361 37.9242 106.838 37.1156 104.511ZM32.7662 117.131C32.6975 117.187 32.6262 117.24 32.555 117.287C32.4836 117.34 32.415 117.39 32.3437 117.438C32.2829 117.48 32.2222 117.522 32.1589 117.562C32.1532 117.567 32.1469 117.571 32.1403 117.575C32.0955 117.607 32.0479 117.636 32.003 117.665C31.9713 117.683 31.9397 117.704 31.908 117.723C31.8155 117.781 31.7231 117.836 31.628 117.889C31.5779 117.921 31.525 117.95 31.4748 117.979C31.4564 117.99 31.4378 118 31.4194 118.011C31.3375 118.056 31.2583 118.095 31.179 118.137C31.1686 118.145 31.1553 118.148 31.1474 118.156C31.1425 118.156 31.1378 118.158 31.1341 118.161C31.0338 118.214 30.9308 118.264 30.8279 118.312C30.4314 118.503 30.0229 118.667 29.6051 118.806C29.5524 118.824 29.4969 118.845 29.4441 118.861C28.7706 119.075 28.0781 119.223 27.3763 119.305C27.2971 119.315 27.2152 119.323 27.1333 119.331C26.7901 119.363 26.4441 119.379 26.0929 119.379C25.7812 119.379 25.4669 119.365 25.158 119.339C24.5121 119.285 23.8722 119.174 23.2461 119.006C22.7695 118.882 22.3026 118.723 21.8491 118.531C21.8253 118.52 21.8015 118.512 21.7778 118.502C21.7514 118.491 21.7302 118.483 21.7065 118.473C21.6801 118.462 21.6589 118.452 21.6325 118.438C21.4609 118.365 21.2892 118.283 21.1229 118.198C21.099 118.185 21.0753 118.174 21.0516 118.161L20.9591 118.114C20.9037 118.085 20.8482 118.056 20.7954 118.026C20.6185 117.931 20.4441 117.828 20.2752 117.723C20.2118 117.683 20.1432 117.641 20.0797 117.599L20.0321 117.567C19.8842 117.467 19.7365 117.366 19.5911 117.258C19.4934 117.184 19.3931 117.113 19.298 117.036C19.137 116.915 18.9811 116.785 18.8306 116.651C18.7513 116.585 18.6721 116.511 18.5983 116.442C18.3009 116.168 18.0196 115.877 17.7558 115.571C17.6687 115.47 17.5815 115.37 17.4996 115.264C17.4812 115.243 17.4653 115.222 17.4468 115.198C16.0853 113.48 15.2663 111.396 15.0943 109.211C14.9223 107.026 15.4049 104.839 16.4808 102.93C17.5566 101.02 19.1768 99.4741 21.1349 98.489C23.0929 97.504 25.2999 97.1245 27.4745 97.3989C29.649 97.6733 31.6926 98.5892 33.3446 100.03C34.9965 101.47 36.1819 103.37 36.7497 105.487C37.3174 107.604 37.2417 109.842 36.5323 111.916C35.8228 113.99 34.5117 115.806 32.7662 117.131Z" fill="#EBEDF0"/>
<path d="M45.6175 47.4919C41.5538 44.0629 36.5811 41.889 31.3044 41.2346C26.0277 40.5803 20.6746 41.4737 15.8965 43.8063C11.1183 46.1388 7.12115 49.8099 4.39135 54.3727C1.66155 58.9356 0.316817 64.1935 0.52079 69.5067C0.724764 74.8199 2.46864 79.9592 5.54023 84.2994C8.61182 88.6395 12.8787 91.9933 17.8216 93.9527C22.7645 95.912 28.1704 96.3924 33.3813 95.3355C38.5923 94.2785 43.3837 91.7297 47.1726 87.9993L80.8167 116.388C81.3289 116.819 81.9909 117.028 82.6576 116.972C83.3243 116.915 83.9412 116.596 84.3732 116.085C84.8052 115.574 85.017 114.913 84.9621 114.246C84.9072 113.579 84.5901 112.961 84.0804 112.528L84.0767 112.525L50.4325 84.1358C54.3409 78.5264 56.0137 71.6596 55.123 64.8812C54.2323 58.1027 50.8423 51.9012 45.6175 47.4919ZM43.4486 81.4021C40.8275 84.5084 37.3442 86.7677 33.4392 87.8942C29.5342 89.0208 25.3827 88.9641 21.5099 87.7313C17.6371 86.4985 14.2168 84.145 11.6816 80.9683C9.14636 77.7916 7.61006 73.9345 7.26696 69.8847C6.92387 65.8349 7.78938 61.7743 9.75405 58.2164C11.7187 54.6585 14.6943 51.7631 18.3045 49.8963C21.9148 48.0295 25.9975 47.2753 30.0364 47.7288C34.0753 48.1824 37.889 49.8235 40.9953 52.4445C45.1606 55.9592 47.7592 60.9846 48.2192 66.4152C48.6793 71.8458 46.9633 77.2368 43.4486 81.4021Z" fill="#363A3D"/>
<path opacity="0.3" d="M14.4909 83.8555C10.5487 80.5287 8.00174 75.8411 7.35574 70.7234C6.70975 65.6057 8.01197 60.4322 11.0038 56.2302C10.6109 56.6259 10.2311 57.0403 9.86433 57.4734C8.12402 59.5359 6.807 61.921 5.98844 64.4924C5.16988 67.0639 4.86583 69.7714 5.09364 72.4604C5.32145 75.1493 6.07666 77.7671 7.31615 80.1642C8.55564 82.5613 10.2551 84.6908 12.3176 86.4311C14.3801 88.1714 16.7651 89.4884 19.3366 90.307C21.908 91.1256 24.6156 91.4296 27.3045 91.2018C29.9935 90.974 32.6112 90.2188 35.0084 88.9793C37.4055 87.7398 39.5349 86.0403 41.2752 83.9778C41.6412 83.5442 41.9858 83.1 42.309 82.6454C38.6703 86.3016 33.7896 88.4556 28.6361 88.6797C23.4827 88.9039 18.4334 87.1818 14.4909 83.8555Z" fill="#202224"/>
<path d="M113.444 117.45C113.707 117.129 113.896 116.754 113.999 116.352C114.101 115.95 114.114 115.531 114.037 115.123C113.959 114.716 113.794 114.33 113.551 113.994C113.309 113.657 112.996 113.378 112.634 113.176L106.501 88.0747L102.028 89.5028L108.65 114.432C108.35 115.063 108.292 115.782 108.487 116.452C108.682 117.123 109.116 117.699 109.707 118.071C110.298 118.442 111.005 118.585 111.693 118.47C112.382 118.356 113.005 117.993 113.444 117.45Z" fill="#FFDED6"/>
<path d="M110.274 101.394L107.005 104.214L102.431 108.157L100.411 97.8211L100.2 96.7463L100.033 95.8933L104.668 87.8203L108.531 88.0419L108.796 88.0577L108.801 88.1161L108.862 88.6575L109.654 95.7821L109.672 95.9541L110.274 101.394Z" fill="#363A3D"/>
<path d="M88.9051 171.554L85.6677 171.554L84.1273 159.066L88.9059 159.066L88.9051 171.554Z" fill="#FFDED6"/>
<path d="M89.7309 174.692L79.2915 174.692V174.56C79.2916 173.482 79.7197 172.449 80.4817 171.687C81.2437 170.925 82.2772 170.497 83.3548 170.497H83.3551L89.7311 170.497L89.7309 174.692Z" fill="#202224"/>
<path d="M122.708 171.818L119.47 171.818L117.93 159.33L122.708 159.33L122.708 171.818Z" fill="#FFDED6"/>
<path d="M123.533 174.956L113.094 174.956V174.824C113.094 173.746 113.522 172.713 114.284 171.951C115.046 171.189 116.08 170.761 117.157 170.761H117.158L123.534 170.761L123.533 174.956Z" fill="#202224"/>
<path d="M125.295 166.847L116.581 168.167L103.902 125.259L90.4365 168.431L80.6655 167.111L93.3414 116.935V112.974L95.058 107.032L94.8784 105.424L93.6293 94.1766L93.0879 89.299L93.0529 88.984C93.0234 88.7195 93.0934 88.4536 93.2493 88.238C93.4052 88.0224 93.6357 87.8725 93.896 87.8175L97.9629 86.9619H104.61L108.531 88.042L108.801 88.116L108.922 88.1503L108.862 88.6573L107.943 96.3633L107.892 96.7858L107.005 104.214L106.81 105.844C114.468 111.39 114.732 116.935 114.732 116.935L125.295 166.847Z" fill="#202224"/>
<path d="M100.483 83.6207C104.065 83.6207 106.969 80.7168 106.969 77.1346C106.969 73.5524 104.065 70.6484 100.483 70.6484C96.9009 70.6484 93.997 73.5524 93.997 77.1346C93.997 80.7168 96.9009 83.6207 100.483 83.6207Z" fill="#FFDED6"/>
<path d="M107.296 104.353L94.4648 106.031L94.7045 107.864L107.535 106.186L107.296 104.353Z" fill="#363A3D"/>
<path d="M77.2542 106.584C77.3769 106.663 77.4931 106.752 77.6018 106.85L90.2927 103.615L91.1584 100.553L95.9497 101.256L94.9438 106.825C94.8625 107.274 94.6375 107.686 94.3025 107.997C93.9676 108.308 93.5407 108.502 93.086 108.55L78.268 110.111C78.0265 110.619 77.6359 111.042 77.1482 111.323C76.6605 111.604 76.0987 111.73 75.5376 111.684C74.9766 111.638 74.4428 111.422 74.0074 111.066C73.5719 110.709 73.2553 110.228 73.0998 109.687C72.9443 109.146 72.9571 108.571 73.1367 108.037C73.3162 107.504 73.654 107.037 74.105 106.7C74.556 106.364 75.0989 106.172 75.6614 106.151C76.2239 106.13 76.7795 106.281 77.2542 106.584Z" fill="#FFDED6"/>
<path d="M96.7745 89.4707L94.5298 87.7542C93.9229 87.524 93.0913 88.1781 92.9453 88.8105L89.7764 101.751L96.3784 106.504L97.3027 105.052L96.7745 89.4707Z" fill="#363A3D"/>
<g opacity="0.2">
<path d="M109.654 95.7823C109.094 96.0047 108.522 96.1986 107.943 96.3632C107.758 96.4187 107.568 96.4715 107.38 96.5217C106.144 96.8646 104.874 97.0701 103.593 97.1344C103.042 97.1577 102.489 97.1427 101.94 97.0895C101.35 97.0307 100.768 96.9158 100.2 96.7462C100.181 96.7409 100.16 96.7356 100.142 96.7303C98.9607 96.395 97.8782 95.7799 96.9857 94.9372C96.7863 94.743 96.6002 94.5357 96.4285 94.3166C95.9354 93.7127 95.5736 93.0125 95.3663 92.2609C95.1589 91.5093 95.1106 90.7227 95.2243 89.9513C95.2464 89.8115 95.2764 89.6731 95.3142 89.5367C95.4137 89.1651 95.5453 88.8028 95.7076 88.454C95.7789 88.2902 95.8582 88.1291 95.9427 87.9707L98.9267 86.9619H104.61L108.531 88.042L108.796 88.0579L108.801 88.116L108.922 88.1503L108.862 88.6573L109.654 95.7823Z" fill="#202224"/>
</g>
<path d="M95.513 71.7647C94.3 71.6161 92.9688 71.7212 92.0234 72.4956C91.0779 73.2699 90.7728 74.8797 91.668 75.7116C92.4604 76.4482 93.6996 76.275 94.761 76.4844C95.6754 76.6894 96.4947 77.1952 97.0876 77.9208C97.6805 78.6465 98.0128 79.5501 98.0314 80.487C98.0156 83.1738 95.437 85.2085 94.9738 87.8552C94.6577 89.6615 95.4195 91.5624 96.7366 92.8383C98.0536 94.1142 99.8642 94.8038 101.688 94.9906C103.513 95.1773 105.357 94.8921 107.13 94.4234C108.91 93.9528 110.663 93.2851 112.157 92.2083C113.65 91.1315 114.875 89.6135 115.354 87.8356C115.834 86.0578 115.49 84.0194 114.254 82.6544C112.839 81.0913 110.484 80.5537 109.26 78.8369C107.888 76.9123 108.396 74.1715 107.285 72.085C106.543 70.6919 105.139 69.7418 103.643 69.2412C102.146 68.7407 100.548 68.6419 98.9705 68.5934C98.1414 68.5679 97.2869 68.5594 96.5144 68.8617C95.742 69.164 95.063 69.8528 95.0229 70.6814C94.9829 71.5099 95.513 71.7647 95.513 71.7647Z" fill="#202224"/>
<path d="M156.236 175.063H55.6204C55.5504 175.063 55.4832 175.035 55.4337 174.986C55.3841 174.936 55.3563 174.869 55.3563 174.799C55.3563 174.729 55.3841 174.662 55.4337 174.612C55.4832 174.563 55.5504 174.535 55.6204 174.535H156.236C156.306 174.535 156.373 174.563 156.423 174.612C156.472 174.662 156.5 174.729 156.5 174.799C156.5 174.869 156.472 174.936 156.423 174.986C156.373 175.035 156.306 175.063 156.236 175.063Z" fill="#B5B8BD"/>
</g>
<defs>
<clipPath id="clip0_1122_1235">
<rect width="156" height="174.126" fill="white" transform="translate(0.5 0.937012)"/>
</clipPath>
</defs>
</svg>
