<svg width="28" height="28" viewBox="0 0 28 28" fill="none" xmlns="http://www.w3.org/2000/svg">
<mask id="mask0_1089_407" style="mask-type:alpha" maskUnits="userSpaceOnUse" x="0" y="0" width="28" height="28">
<rect width="28" height="28" fill="#D9D9D9"/>
</mask>
<g mask="url(#mask0_1089_407)">
<path d="M15.7612 25.0833H12.2276C11.9658 25.0833 11.7392 24.9954 11.5478 24.8197C11.3563 24.6439 11.2412 24.4252 11.2023 24.1634L10.8635 21.5295C10.5509 21.4247 10.2304 21.2782 9.9021 21.0897C9.57378 20.9012 9.28024 20.6993 9.02147 20.4839L6.58495 21.5115C6.33517 21.6087 6.08725 21.6184 5.8412 21.5407C5.59515 21.4629 5.40182 21.3088 5.26122 21.0785L3.50679 18.0227C3.36618 17.7924 3.32318 17.5464 3.37778 17.2846C3.43236 17.0229 3.5651 16.812 3.77599 16.6519L5.88498 15.0567C5.85805 14.8832 5.83897 14.709 5.82775 14.534C5.81653 14.359 5.81092 14.1847 5.81092 14.0112C5.81092 13.8452 5.81653 13.6765 5.82775 13.5053C5.83897 13.334 5.85805 13.1467 5.88498 12.9433L3.77599 11.348C3.5651 11.188 3.43236 10.9771 3.37778 10.7154C3.32318 10.4536 3.36618 10.2076 3.50679 9.97724L5.26122 6.94396C5.38986 6.70165 5.57833 6.54459 5.82662 6.4728C6.0749 6.40102 6.32394 6.41373 6.57372 6.51095L9.01024 7.5273C9.29145 7.30442 9.59172 7.10063 9.91106 6.9159C10.2304 6.73116 10.5441 6.5827 10.8523 6.47053L11.2023 3.83657C11.2412 3.57481 11.3563 3.35606 11.5478 3.18032C11.7392 3.00457 11.9658 2.91669 12.2276 2.91669H15.7612C16.0229 2.91669 16.2514 3.00457 16.4466 3.18032C16.6418 3.35606 16.7588 3.57481 16.7977 3.83657L17.1365 6.48176C17.4865 6.60889 17.8032 6.75733 18.0867 6.9271C18.3701 7.09687 18.6562 7.29694 18.9448 7.5273L21.4263 6.51095C21.676 6.41373 21.9221 6.40213 22.1644 6.47616C22.4067 6.5502 22.5982 6.70239 22.7388 6.93273L24.4932 9.97724C24.6338 10.2076 24.6768 10.4536 24.6222 10.7154C24.5676 10.9771 24.4349 11.188 24.224 11.348L22.0701 12.9769C22.112 13.1654 22.1348 13.3415 22.1386 13.5053C22.1423 13.669 22.1442 13.834 22.1442 14C22.1442 14.1585 22.1404 14.3197 22.133 14.4835C22.1255 14.6473 22.0986 14.8346 22.0522 15.0455L24.1836 16.6519C24.402 16.8045 24.5366 17.0135 24.5874 17.279C24.6383 17.5445 24.5934 17.7924 24.4528 18.0227L22.6984 21.0605C22.5578 21.2909 22.3615 21.446 22.1094 21.5261C21.8574 21.6061 21.6065 21.5975 21.3567 21.5003L18.9448 20.4727C18.6562 20.703 18.3615 20.9068 18.0609 21.0841C17.7602 21.2613 17.4521 21.4061 17.1365 21.5182L16.7977 24.1634C16.7588 24.4252 16.6418 24.6439 16.4466 24.8197C16.2514 24.9954 16.0229 25.0833 15.7612 25.0833ZM14.0134 17.5C14.9842 17.5 15.8102 17.1593 16.4915 16.478C17.1728 15.7967 17.5134 14.9707 17.5134 14C17.5134 13.0293 17.1728 12.2033 16.4915 11.522C15.8102 10.8407 14.9842 10.5 14.0134 10.5C13.0308 10.5 12.2018 10.8407 11.5265 11.522C10.8511 12.2033 10.5135 13.0293 10.5135 14C10.5135 14.9707 10.8511 15.7967 11.5265 16.478C12.2018 17.1593 13.0308 17.5 14.0134 17.5ZM14.0134 15.75C13.5273 15.75 13.1141 15.5799 12.7739 15.2396C12.4336 14.8993 12.2634 14.4861 12.2634 14C12.2634 13.5139 12.4336 13.1007 12.7739 12.7604C13.1141 12.4201 13.5273 12.25 14.0134 12.25C14.4995 12.25 14.9127 12.4201 15.253 12.7604C15.5933 13.1007 15.7634 13.5139 15.7634 14C15.7634 14.4861 15.5933 14.8993 15.253 15.2396C14.9127 15.5799 14.4995 15.75 14.0134 15.75ZM12.8333 23.3333H15.1263L15.5458 20.208C16.1411 20.0524 16.6852 19.8314 17.178 19.545C17.6709 19.2586 18.1461 18.8903 18.6038 18.4401L21.5026 19.6583L22.6513 17.675L20.1205 15.7679C20.2177 15.4658 20.2839 15.1697 20.3191 14.8795C20.3542 14.5893 20.3718 14.2962 20.3718 14C20.3718 13.6964 20.3542 13.4032 20.3191 13.1205C20.2839 12.8378 20.2177 12.5491 20.1205 12.2545L22.6737 10.325L21.525 8.34166L18.5926 9.57789C18.2022 9.16057 17.7345 8.79187 17.1892 8.4718C16.644 8.15171 16.0925 7.9251 15.5346 7.79198L15.1667 4.66666H12.8513L12.4654 7.78075C11.8701 7.92136 11.3204 8.13674 10.8163 8.42691C10.3123 8.71708 9.8314 9.09102 9.37372 9.54872L6.47499 8.34166L5.32626 10.325L7.84582 12.2029C7.7486 12.4796 7.68055 12.7675 7.64166 13.0667C7.60277 13.3658 7.58332 13.6807 7.58332 14.0112C7.58332 14.3148 7.60277 14.6125 7.64166 14.9042C7.68055 15.1958 7.74486 15.4837 7.83459 15.7679L5.32626 17.675L6.47499 19.6583L9.36249 18.4333C9.80522 18.888 10.2786 19.2605 10.7827 19.5506C11.2867 19.8408 11.8439 20.0637 12.4542 20.2192L12.8333 23.3333Z" fill="#ABABAB"/>
</g>
</svg>
